<svg width="21" height="20" viewBox="0 0 21 20" fill="none" xmlns="http://www.w3.org/2000/svg">
<path d="M1.5 11H2.5V18C2.5 19.103 3.397 20 4.5 20H16.5C17.603 20 18.5 19.103 18.5 18V11H19.5C19.6978 10.9999 19.891 10.9413 20.0555 10.8314C20.2199 10.7215 20.348 10.5653 20.4237 10.3826C20.4993 10.1999 20.5192 9.99889 20.4806 9.80494C20.442 9.61099 20.3468 9.43282 20.207 9.29297L11.207 0.292969C11.0195 0.105498 10.7652 0.000183105 10.5 0.000183105C10.2348 0.000183105 9.98053 0.105498 9.793 0.292969L0.793001 9.29297C0.653191 9.43282 0.557985 9.61099 0.519417 9.80494C0.48085 9.99889 0.500653 10.1999 0.576323 10.3826C0.651993 10.5653 0.780132 10.7215 0.944542 10.8314C1.10895 10.9413 1.30225 10.9999 1.5 11ZM8.5 18V13H12.5V18H8.5ZM10.5 2.41397L16.5 8.41397V13L16.501 18H14.5V13C14.5 11.897 13.603 11 12.5 11H8.5C7.397 11 6.5 11.897 6.5 13V18H4.5V8.41397L10.5 2.41397Z" fill="black"/>
</svg>
