<?xml version="1.0" encoding="UTF-8"?>
<svg id="Layer_2" data-name="Layer 2" xmlns="http://www.w3.org/2000/svg" viewBox="0 0 153.94 170.67">
  <defs>
    <style>
      .cls-1 {
        fill: #42c1c7;
      }

      .cls-2 {
        fill: #f79428;
      }

      .cls-3 {
        fill: #a1a7a8;
      }
    </style>
  </defs>
  <g id="_Диз._контент" data-name="Диз. контент">
    <g>
      <path class="cls-1" d="M126.68,39.73c-.61-1.31-1.28-2.61-2.03-3.89-.75-1.28-1.57-2.54-2.45-3.78-1.33-1.85-2.81-3.65-4.43-5.36-.54-.57-1.1-1.13-1.67-1.68-1.15-1.1-2.36-2.17-3.63-3.18-1.27-1.02-2.61-1.98-4-2.9-1.57-1.03-3.21-1.99-4.92-2.87-.57-.29-1.15-.58-1.74-.85-7.05-3.3-15.24-5.28-24.38-5.28-12.19,0-22.69,3.51-31.05,9-1.39,.91-2.73,1.88-4,2.9-1.27,1.02-2.48,2.08-3.63,3.18-.57,.55-1.13,1.11-1.67,1.68-1.63,1.71-3.11,3.51-4.43,5.36-.89,1.24-1.7,2.5-2.45,3.78-.75,1.28-1.43,2.58-2.03,3.89-2.43,5.25-3.71,10.68-3.71,15.84,0,.17,0,.34,.01,.51l1.83-.95c.61-.56,1.2-1.08,1.79-1.54,.59-.47,1.17-.89,1.75-1.27,2.05-1.34,4.13-2.71,6.24-4.11,.86-.57,1.73-1.14,2.6-1.72,.87-.58,1.75-1.15,2.63-1.73,1.76-1.15,3.52-2.31,5.28-3.43,.12-.1,.26-.22,.41-.35s.31-.27,.47-.43c.33-.3,.71-.65,1.1-1.01,.39-.37,.8-.75,1.21-1.15,2.06-1.96,4.17-4.04,4.21-4.07l.12-.12,.1-.09,.12-.06,10.88-5.14,.22-.1,.24,.03,11.25,1.6,9.14,.49h.22s.18,.13,.18,.13l.23,.15s.69,.46,1.7,1.13c.17,.11,.34,.23,.53,.35,.37,.25,.77,.51,1.18,.79,.21,.14,.42,.28,.64,.43,1.29,.87,2.69,1.82,3.87,2.63,.25,.14,.86,.51,1.73,1.06,.37,.23,.8,.5,1.26,.79,2.31,1.45,5.6,3.56,8.85,5.67,.22,.14,.43,.28,.65,.42,1.08,.7,2.15,1.4,3.16,2.07,.2,.13,.4,.27,.6,.4,2.57,.54,5.04,1.47,7.08,2.67,.29,.17,.57,.35,.85,.53l.34,.23c3.47,2.31,7.76,5.17,11.23,8.33,.04-1.04,.07-2.09,.07-3.14,0-5.16-1.28-10.6-3.71-15.84Zm-90.51,3.12c0,.4-.33,.73-.73,.73s-.73-.33-.73-.73c0-.3,.18-.56,.44-.67,.09-.04,.18-.06,.28-.06s.2,.02,.28,.06c.26,.11,.44,.37,.44,.67Zm9.16-8.18l-.97,1.87-.57-2.03-1.87-.97,2.03-.57,.97-1.87,.57,2.03,1.87,.97-2.03,.57Zm8.6-11.59c-.13,.13-.31,.21-.51,.21s-.38-.08-.51-.21c-.13-.13-.21-.31-.21-.51,0-.4,.33-.73,.73-.73s.73,.33,.73,.73c0,.2-.08,.38-.21,.51Zm27.57-6.05c-.4,0-.73-.33-.73-.73s.33-.73,.73-.73,.73,.33,.73,.73-.33,.73-.73,.73Zm-12.57,6.05c-.07,.07-.14,.12-.23,.16-.09,.04-.18,.06-.28,.06s-.2-.02-.28-.06c-.09-.04-.17-.09-.23-.16-.13-.13-.21-.31-.21-.51,0-.4,.33-.73,.73-.73s.73,.33,.73,.73c0,.2-.08,.38-.21,.51Zm41,6.99c0,.4-.33,.73-.73,.73s-.73-.33-.73-.73,.33-.73,.73-.73,.73,.33,.73,.73Zm-17.17-5.52l-1.87,3.35-.92-3.72-3.35-1.87,3.72-.92,1.87-3.35,.92,3.72,3.35,1.87-3.72,.92Zm6.04,7.13c-.4,0-.73-.33-.73-.73s.33-.73,.73-.73,.73,.33,.73,.73-.33,.73-.73,.73Zm16.31,7.68l-.34,2.08-1.17-1.75-2.08-.34,1.75-1.17,.34-2.08,1.17,1.75,2.08,.34-1.75,1.17Zm5.61,5.89c.13-.13,.31-.21,.51-.21,.3,0,.56,.18,.67,.44,.04,.09,.06,.18,.06,.28,0,.2-.08,.38-.21,.51-.13,.13-.31,.21-.51,.21s-.38-.08-.51-.21c-.13-.13-.21-.31-.21-.51s.08-.38,.21-.51Z"/>
      <path class="cls-1" d="M107.05,119.82c.06-.08,.11-.15,.17-.23-.51,.02-.99,.06-1.4,.11,.26,0,.71,.05,1.24,.12Z"/>
      <path class="cls-1" d="M96.63,117.1c-1.44-.63-3.75-.71-7.23-.56-6.44,.28-13.06-1.52-19.55-1.97-4.14-.29-7.96,2.12-11.65,2.45-3.57,.32-7.98,.02-12.43-.06,.21,.31,.42,.63,.64,.93,1.37,1.97,2.78,3.92,4.23,5.86,.19,.25,.38,.49,.57,.74,2.07-.07,3.82-.19,4.48-.4,2.1-.68,5.28,.07,6.9-.41,1.62-.47,11.3-.34,7.85,.14-3.45,.47,2.44,1.56,4.26,.81,1.83-.74,7.31,.34,5.89,.95-1.42,.61-15.7,0-18,0-1.73,0-8.84-.15-10.52,.03,.07,.09,.14,.17,.2,.26,.08,.01,.17,.03,.27,.04,4.03,.61,10.27,2.37,5.63,2.88-1.14,.12-2.4,.09-3.67-.03,1.69,2.14,3.4,4.26,5.14,6.36,.19,.23,.38,.45,.57,.68h0c.2,.24,.39,.48,.59,.72,2.69,3.21,5.42,6.38,8.17,9.52,.42,.48,.83,.95,1.25,1.43,.02,.02,.04,.04,.05,.06,2.39,2.72,4.78,5.42,7.15,8.11,.04-.04,.08-.08,.11-.13,2.33-2.65,4.69-5.3,7.04-7.98,.44-.5,.87-.99,1.3-1.49,2.75-3.14,5.48-6.3,8.17-9.51,.2-.24,.39-.47,.59-.71h.01c.19-.23,.38-.46,.56-.69,3.1-3.73,6.12-7.52,9.01-11.38,.62-.83,1.2-1.67,1.81-2.5-2.97,.01-5.97-.03-7.61-.07-3.76-.08-13.53-.83-13.53-.83-.92-.48,4.27-1.42,8.53-1.93,.44-.05,.88-.09,1.33-.11,1.29,.05,2.59,.09,3.88,.15,0,0,.07,0,.18,0,.19,.03,.37,.04,.56,.07,.89,.15,2.28,.23,4.54,.23,1.12,.07,2.37,.15,3.73,.25,.27-.38,.55-.75,.81-1.13,.3-.43,.59-.87,.89-1.31-4.24-.13-9-.09-12.7,.51Z"/>
      <path class="cls-1" d="M151.38,72.84l-1.53-.45c-.86-.25-1.29-.38-2.16-.62-2.37-.68-4.14-1.11-5.9-1.44-.81-.15-1.63-.28-2.5-.4,.67-4.64,1.04-9.41,1.04-14.35,0-13.37-6.32-27.12-17.35-37.73C111.01,6.34,94.83,0,77.42,0S43.82,6.34,31.85,17.85c-11.02,10.6-17.35,24.35-17.35,37.73,0,5,.38,9.83,1.07,14.53h-.05s-1.07,.2-1.07,.2c-.72,.13-1.08,.2-1.79,.33-1.52,.29-2.29,.44-3.81,.74-1.22,.24-1.82,.37-3.04,.62-.86,.18-1.29,.27-2.16,.46l-3.65,.79,.94,3.61,.25,.95,.3,1.16,.17,.65,.61,2.34,2.85,10.92,.35,1.35c.11,.44,.26,.86,.44,1.27v13.58l4.28-.86c.65-.13,.97-.19,1.62-.32,.91-.18,1.37-.27,2.29-.44,1.05-.2,1.58-.3,2.63-.48l.49-.09c.64-.12,1.06-.19,1.57-.28v16.88l4.15-.67c.65-.11,.98-.16,1.63-.26,.92-.14,1.38-.21,2.3-.35,.98-.15,1.47-.22,2.45-.36,.92-.13,1.38-.19,2.3-.32,.65-.09,.98-.13,1.63-.22l.44-.06c1.02-.13,1.53-.2,2.55-.32l.23-.03c9.33,13.92,20.46,26.54,31,38.48l2.49,2.83,7.46,8.46,7.46-8.46,2.49-2.83c10.54-11.94,21.67-24.55,30.99-38.47,.28,.03,.59,.07,.93,.11,1.04,.13,1.56,.2,2.6,.33l1.86,.24,.56,.08c.77,.11,1.16,.16,1.93,.27,.94,.14,1.41,.21,2.34,.35,1.1,.17,1.64,.25,2.74,.43,.78,.12,1.17,.19,1.94,.32l4.16,.69v-4.22s0-12.65,0-12.65l.77,.14,1.41,.26c.92,.17,1.37,.26,2.29,.43,1.53,.29,2.29,.44,3.81,.76,.91,.19,1.37,.28,2.28,.47,.65,.14,.97,.21,1.62,.35l4.33,.94v-36.61l-2.56-.76Z"/>
      <polygon points="114.78 37.86 113.61 36.11 113.27 38.19 111.52 39.36 113.6 39.7 114.77 41.45 115.11 39.37 116.86 38.2 114.78 37.86"/>
      <path d="M121.23,46.5c.2,0,.38-.08,.51-.21,.13-.13,.21-.31,.21-.51,0-.1-.02-.2-.06-.28-.11-.26-.37-.44-.67-.44-.2,0-.38,.08-.51,.21s-.21,.31-.21,.51,.08,.38,.21,.51c.13,.13,.31,.21,.51,.21Z"/>
      <polygon points="93.13 21.76 92.22 18.04 90.34 21.39 86.62 22.3 89.97 24.18 90.88 27.9 92.76 24.55 96.48 23.63 93.13 21.76"/>
      <polygon points="45.49 33.14 44.93 31.11 43.96 32.98 41.93 33.54 43.8 34.51 44.36 36.54 45.33 34.67 47.36 34.11 45.49 33.14"/>
      <path d="M108.48,30.07c0,.4,.33,.73,.73,.73s.73-.33,.73-.73-.33-.73-.73-.73-.73,.33-.73,.73Z"/>
      <path d="M99.53,30.96c0-.4-.33-.73-.73-.73s-.73,.33-.73,.73,.33,.73,.73,.73,.73-.33,.73-.73Z"/>
      <path d="M81.51,15.58c-.4,0-.73,.33-.73,.73s.33,.73,.73,.73,.73-.33,.73-.73-.33-.73-.73-.73Z"/>
      <path d="M68.42,21.85c-.4,0-.73,.33-.73,.73,0,.2,.08,.38,.21,.51,.07,.07,.14,.12,.23,.16,.09,.04,.18,.06,.28,.06s.2-.02,.28-.06c.09-.04,.17-.09,.23-.16,.13-.13,.21-.31,.21-.51,0-.4-.33-.73-.73-.73Z"/>
      <path d="M53.42,21.85c-.4,0-.73,.33-.73,.73,0,.2,.08,.38,.21,.51,.13,.13,.31,.21,.51,.21s.38-.08,.51-.21c.13-.13,.21-.31,.21-.51,0-.4-.33-.73-.73-.73Z"/>
      <path d="M35.73,42.19c-.09-.04-.18-.06-.28-.06s-.2,.02-.28,.06c-.26,.11-.44,.37-.44,.67,0,.4,.33,.73,.73,.73s.73-.33,.73-.73c0-.3-.18-.56-.44-.67Z"/>
      <path d="M16.94,79.27l-.1,.43,.1-.39s0-.03,0-.04Z"/>
      <path d="M132.67,78.14l-1.35-5.97s-.03,0-.04,0c-1.7-.31-9.57-1.52-13.81-1.99,4.09-1.43,12.79-1.07,17.62-.73,.05-.57,.11-1.28,.16-2.09,.46-3.82,.71-7.75,.71-11.79,0-12.01-5.98-24.94-16-34.57-11.15-10.72-26.26-16.63-42.53-16.63s-31.38,5.91-42.53,16.63c-10.02,9.64-16,22.56-16,34.57,0,4.75,.35,9.33,.98,13.78,.01,0,.02,0,.03,0l.08,.56c1.56,.06,7.27,.11,13.12-1.8,3.6-1.17,6.54,2.08,6.54,2.08-10.76,1.09-21.21,3.1-21.21,3.1l-1.49,6.02c-.04,.24-.07,.39-.1,.39l-1.54-5.91c-.07,.01-.13,.02-.21,.04-.71,.13-1.06,.2-1.78,.33-1.51,.28-2.26,.43-3.77,.73-.36,.07-.66,.13-.94,.19-.19,.04-.38,.08-.56,.11-.04,0-.08,.02-.12,.02-.19,.04-.37,.08-.58,.12-.24,.05-.51,.11-.81,.17-.1,.02-.19,.04-.28,.06-.6,.13-1.21,.26-1.86,.4,.22,.85,.33,1.27,.55,2.12,.31,1.19,.47,1.79,.78,2.98,.64,2.45,1.12,4.29,1.6,6.13,.12,.46,.24,.92,.36,1.39,.37,1.41,.76,2.91,1.24,4.75,.12,.46,.32,.88,.55,1.27v10.11c.33-.07,.57-.11,.82-.16,.25-.05,.49-.1,.82-.16,.92-.18,1.39-.27,2.31-.44,1.06-.2,1.59-.3,2.66-.49,.2-.04,.3-.05,.5-.09,.93-.17,1.39-.25,2.32-.41,1.38-.24,2.08-.35,3.46-.58v16.9c.66-.11,.99-.16,1.65-.26,.93-.15,1.39-.22,2.32-.36,.99-.15,1.48-.22,2.47-.36,.23-.03,.44-.06,.62-.09,.19-.03,.36-.05,.54-.08,.35-.05,.7-.1,1.16-.16,.66-.09,.99-.13,1.65-.22,.18-.02,.26-.03,.44-.06,1.03-.13,1.55-.2,2.58-.32,.32-.04,.48-.06,.8-.1,.93-.11,1.4-.16,2.33-.27,.07,0,.12-.01,.18-.02,1.61,2.45,3.28,4.87,5,7.26l-.14-.1c8.17,11.26,17.51,21.85,26.75,32.31,0,0,.01,.01,.02,.02,.06,.07,.12,.14,.18,.21l2.31,2.62,4.18,4.74h0l.44-.5,3.73-4.23,.92-1.04c.52-.59,1.05-1.19,1.57-1.78,.04-.05,.08-.09,.12-.14,1.4-1.58,2.8-3.17,4.19-4.76,.02-.02,.03-.04,.05-.06,8.07-9.18,16.07-18.53,23.14-28.4l-.18,.13c1.48-2.07,2.91-4.16,4.31-6.28,.22,.03,.44,.06,.66,.1,1.25,.14,2,.23,3.35,.4,.53,.07,.92,.11,1.31,.16,.39,.05,.79,.1,1.31,.17,0,0,0,0,0,0,.39,.05,.58,.08,.97,.13,.59,.08,.88,.12,1.47,.2,.78,.11,1.17,.16,1.95,.28,.95,.14,1.42,.21,2.37,.35,1.11,.17,1.66,.25,2.77,.43,.79,.13,1.18,.19,1.96,.32v-16.89s.03,0,.08,.01c.38,.06,2.01,.33,3.43,.58,.59,.1,.89,.16,1.48,.26,.57,.1,.85,.15,1.42,.26,.23,.04,.43,.08,.62,.12,.19,.04,.36,.07,.53,.1,.35,.07,.69,.13,1.16,.22,1.54,.3,2.31,.45,3.85,.76,.92,.19,1.38,.28,2.31,.48,.33,.07,.57,.12,.82,.17,.12,.03,.25,.05,.38,.08,.13,.03,.28,.06,.44,.09v-29.51c-6.58-1.78-13.57-3.02-16.16-3.46l-1.53,5.34Zm-112.64,15.08h0c-.01,.06-.03,.1-.04,.16-.03,.14-.05,.22-.09,.36,0,0,0,0,0,0-.49,1.95-.87,3.12-1.42,4.22-.24,.49-.84,.95-1.32,1.04-.17,.03-.36,.06-.56,.1h0c-1.26,.23-1.89,.34-3.16,.58v-2.99c.46-.38,.68-.57,1.14-.94,.5-.09,.75-.14,1.25-.23,.2-.62,.39-1.27,.55-1.96,.14-.61,.21-.91,.36-1.51-.99,.18-1.49,.27-2.48,.45,0,0,0,0-.02,0-.65,.12-1.32-.31-1.49-.95-1.28-4.9-1.92-7.34-3.2-12.23,1.51-.3,2.26-.45,3.77-.73,.94,3.58,1.4,5.37,2.34,8.95-.6,.5-.91,.75-1.51,1.25,.04,0,.06-.01,.11-.02,.73-.13,1.09-.2,1.82-.33,.63-.11,.95-.17,1.58-.28,1.02-4.32,1.53-6.48,2.55-10.79,1.51-.25,2.27-.37,3.78-.61-1.32,5.49-2.64,10.99-3.96,16.48Zm13.2,20.12c-1.09-2.36-1.64-3.54-2.73-5.89-1.42,.19-2.13,.3-3.56,.5,.75,.37,1.12,.56,1.87,.93,0,2.02,0,3.03,0,5.05-.99,.14-1.48,.21-2.47,.36v-15.03c.99-.15,1.48-.22,2.47-.36v6.43c.67-.09,1.01-.14,1.68-.23,.57-2.35,.85-3.52,1.42-5.87,.1-.42,.53-.83,.92-.88,.93-.12,1.39-.18,2.31-.29v1.89c-.28,.22-.42,.32-.71,.54-.25,.03-.37,.05-.62,.08-.5,2.18-.75,3.27-1.24,5.45,1.29,2.79,1.94,4.19,3.23,6.99-1.03,.12-1.55,.19-2.58,.32Zm4.18-26.89c-.2,.48-.8,.95-1.33,1.04-2.18,.4-3.81,.66-5.61,.87-.3,.03-.61,.07-.92,.1-.41,.06-.61,.09-1.02,.14,.68,.29,1.02,.43,1.7,.72v5.06c-1.55,.21-2.32,.32-3.87,.55v-18.58h0c3.93-.86,6.05-1.16,9.72-1.37,.52-.03,1.13,.3,1.33,.73,1.51,3.25,1.51,7.13,0,10.74Zm54.88-42.79l-3.02-1.83-2.12,3.28-.52,.67-2.51,2.78-9.52,5.17c.6-.46,1.05-.81,1.77-1.36,2.99-2.78,9.03-8.29,9.03-8.29l2.5-3.45,2.85-1.67-4.88-2.56-2.2,3.6-4.09-4.09-2.77,5.1-4.44,2.07s-1.94,3.93-3.85,7.62c.21-3.43,1.04-7.9,1.04-7.9l7.05-9.57-8.16,2.68-3.82,.49-1.48,2.83-5.36,.15-5.09,5.63-2.17-.81-17.33,9.3h-.05c1.49-.97,2.98-1.95,4.49-2.95,3.5-2.32,7.05-4.67,10.68-7.01,1.84-1.54,6.67-6.28,7.52-7.11l10.04-4.74,10.86,1.54,8.65,.46c.4,.27,1.32,.88,2.45,1.64,1.53,1.89,2.93,3.63,2.93,3.63l2.65,.14s.03,.02,.06,.04l-1.15,4.53Zm3.24,67.33c-1.11-.06-1.66-.08-2.76-.13v-15.03c.99,.04,1.49,.07,2.49,.12v9.76c1.71-3.82,2.57-5.72,4.28-9.52,1.16,.07,1.73,.11,2.89,.2v15.03c-.99-.07-1.49-.11-2.48-.17v-10.06c-1.76,3.91-2.64,5.87-4.41,9.8Zm-4.35-34.07c-.63,3.84-.58,7.46,.16,11.41,1.55,.12,2.91,.18,4.46,.21,.16-.82,.29-1.63,.38-2.44,1.56,.08,2.33,.13,3.89,.23-.17,1.45-.44,2.92-.82,4.44-.14,.58-.78,1.05-1.43,1.05-3.24,0-5.28-.09-8.52-.4-.64-.06-1.31-.61-1.42-1.18-1.21-5.97-1.22-10.5,0-16.45,.12-.56,.78-1.08,1.43-1.09,3.23-.08,5.28,.01,8.52,.4,.65,.08,1.28,.63,1.43,1.23,.37,1.56,.64,3.07,.81,4.54-1.56-.1-2.33-.15-3.89-.23-.1-.81-.23-1.64-.38-2.48-1.54-.14-2.9-.2-4.44-.21-.76-.03-1.14-.05-1.91-.07,.69,.41,1.04,.62,1.73,1.04Zm-3.34,19.46c.26,1.22,.44,2.37,.57,3.51-.99-.03-1.49-.05-2.48-.07-.07-.6-.15-1.22-.26-1.89,0-.06-.01-.09-.02-.15-.06,0-.09,0-.14,0-1.12-.07-2.13-.09-3.25-.06-.81-.01-1.22-.02-2.03-.02,.68,.44,1.02,.66,1.71,1.11-.44,3.18-.4,6.17,.14,9.4,.01,.06,.02,.09,.03,.15,.06,0,.09,0,.14,0,1.12,.06,2.13,.08,3.27,.06,.06,0,.09,0,.14,0,0-.06,.01-.09,.02-.15,.11-.66,.2-1.28,.26-1.88,.99,.02,1.49,.04,2.48,.07-.13,1.13-.31,2.27-.57,3.48-.09,.4-.49,.76-.88,.77-2.34,.1-3.85,.07-6.2-.12-.39-.03-.79-.41-.88-.81-.94-4.06-.94-9.5,0-13.56,.09-.4,.49-.77,.88-.79,1.17-.07,2.13-.09,3.09-.08,.96,.02,1.93,.08,3.1,.19,.39,.04,.79,.42,.88,.83Zm-4.63-6.01c-.2,.45-.81,.84-1.33,.87-3.68,.19-5.81,.16-9.77-.05v-18.58c1.56-.02,2.34-.03,3.89-.04v5.24c-.58,.33-.87,.49-1.45,.82,.59-.03,1.15-.06,1.69-.07,1.8-.05,3.45,0,5.63,.17,.53,.04,1.13,.45,1.33,.91,1.51,3.46,1.51,7.33,0,10.74Zm-15.11,8.51c-.44,3.2-.4,6.19,.14,9.39,.01,.06,.02,.09,.03,.15,.06,0,.08,0,.14,0,1.12,.02,2.13,0,3.27-.07,.06,0,.09,0,.14,0,0-.06,.01-.09,.02-.15,.11-.67,.2-1.29,.26-1.89,.99-.02,1.49-.02,2.49-.03-.13,1.14-.31,2.29-.57,3.5-.09,.41-.49,.78-.88,.81-2.34,.19-3.85,.22-6.2,.13-.39-.02-.79-.38-.88-.77-.95-4.06-.93-9.5,0-13.56,.09-.4,.49-.79,.88-.83,1.17-.12,2.13-.18,3.09-.2,.96-.02,1.93,0,3.1,.07,.39,.02,.79,.39,.88,.8,.26,1.21,.44,2.35,.57,3.49-.99,0-1.49,.01-2.48,.03-.07-.6-.15-1.21-.26-1.88-.01-.06-.01-.09-.02-.15-.06,0-.09,0-.14,0-1.12-.03-2.13,0-3.25,.07-.81,.02-1.22,.03-2.03,.06,.68,.41,1.02,.62,1.71,1.04Zm-6.58-22.69c-.41,.02-.61,.03-1.02,.05-.37,.02-.56,.03-.93,.05,.7,.36,1.05,.54,1.75,.9-.02,.11-.02,.17-.04,.28-.48,5.11-.72,7.66-1.2,12.77-.07,.74-.77,1.37-1.55,1.41-.41,.02-.62,.03-1.03,.06-.5,.03-.74,.04-1.24,.07-.33,.02-.5,.03-.84,.05v-2.63c.46-.29,.69-.43,1.14-.71,0,0,0,0,0,0,.4-4.29,.6-6.44,1-10.72,.13-1.37,.45-2.56,.99-3.82,.22-.5,.87-.92,1.43-.95,.18,0,.34-.02,.5-.02h0c1.73-.09,2.6-.12,4.33-.18,.84-.03,1.26-.04,2.1-.07,.72-.02,1.08-.03,1.8-.05v18.58c-1.56,.04-2.34,.06-3.89,.12v-15.3c-1.32,.05-1.99,.08-3.31,.14Zm-6.72,32.69c-.16,.95-.23,1.43-.39,2.38-.95,.06-1.43,.1-2.38,.17,.81-4.98,1.22-7.46,2.03-12.43,.45-.03,.67-.05,1.12-.07-.66-.38-.99-.57-1.66-.95v-1.66c1.34-.1,2.02-.14,3.36-.23,0,0,0,0,0,.01,.8-.05,1.2-.08,2-.12,.02,0,.04,0,.06,0,.07,.01,.11,.02,.18,.03,.35,.09,.64,.41,.7,.76,.78,4.69,1.57,9.38,2.35,14.06-.95,.04-1.43,.06-2.38,.11-.23-1.37-.34-2.05-.57-3.42-2.46,.13-3.69,.2-6.15,.38,.68,.39,1.03,.58,1.71,.98Zm75.53-50.17c-3.48-3.16-7.76-6.01-11.23-8.33l-.34-.23c-.27-.18-.56-.36-.85-.53-2.04-1.2-4.51-2.13-7.08-2.67-.2-.13-.4-.26-.6-.4-1.02-.67-2.08-1.37-3.16-2.07-.22-.14-.43-.28-.65-.42-3.25-2.11-6.55-4.22-8.85-5.67-.46-.29-.88-.56-1.26-.79-.87-.55-1.48-.92-1.73-1.06-1.18-.81-2.58-1.76-3.87-2.63-.22-.15-.43-.29-.64-.43-.42-.28-.81-.55-1.18-.79-.18-.12-.36-.24-.53-.35-1-.67-1.68-1.12-1.7-1.13l-.23-.15-.18-.12h-.22s-9.14-.5-9.14-.5l-11.25-1.6-.24-.03-.22,.1-10.88,5.14-.12,.06-.1,.09-.12,.12s-2.15,2.11-4.21,4.07c-.41,.39-.82,.78-1.21,1.15-.39,.37-.76,.71-1.1,1.01-.17,.15-.33,.29-.47,.43s-.28,.25-.41,.35c-1.75,1.13-3.52,2.28-5.28,3.43-.88,.58-1.76,1.16-2.63,1.73-.87,.58-1.74,1.15-2.6,1.72-2.11,1.4-4.19,2.77-6.24,4.11-.58,.38-1.16,.8-1.75,1.27-.59,.47-1.18,.98-1.79,1.54l-1.83,.95c0-.17-.01-.34-.01-.51,0-5.16,1.28-10.6,3.71-15.84,.61-1.31,1.28-2.61,2.03-3.89,.75-1.28,1.57-2.54,2.45-3.78,1.33-1.85,2.81-3.65,4.43-5.36,.54-.57,1.1-1.13,1.67-1.68,1.15-1.1,2.36-2.17,3.63-3.18,1.27-1.02,2.61-1.98,4-2.9,8.36-5.48,18.86-9,31.05-9,9.14,0,17.33,1.98,24.38,5.28,.59,.28,1.17,.56,1.74,.85,1.71,.88,3.36,1.84,4.92,2.87,1.39,.91,2.73,1.88,4,2.9,1.27,1.02,2.48,2.08,3.63,3.18,.57,.55,1.13,1.11,1.67,1.68,1.63,1.71,3.11,3.51,4.43,5.36,.89,1.24,1.7,2.5,2.45,3.78,.75,1.28,1.43,2.58,2.03,3.89,2.43,5.25,3.71,10.68,3.71,15.84,0,1.06-.03,2.1-.07,3.14Zm-94.87-1l-9.04,7.33-3.77,1.07c-.1,0-.21,0-.31,.02,.47-.68,1.29-1.64,2.14-2.49l.54-.54-.31-.53c-.02-.52,.19-2.19,.44-3.71l6.02-3.12,11.55-1.43,.19-.13c.2-.13,1.76-1.17,2.48-1.72,3.75-.85,8.21-1.51,8.98-1.2,2.33,1.45,6.56,1.24,10.29,1.05,.64-.03,1.26-.06,1.86-.08,3.31,2.09,12.3,5.24,14.49,5.99l-15.01-3.62-8.04-.21,5.46,8.64-9.66-5.64-8.12,4.51-10.18-4.19Zm6.84,19.92c.35-.04,.52-.05,.87-.09-.65-.3-.98-.45-1.63-.75v-2.36c.55-.06,.83-.09,1.38-.14,0,0,0,0,0-.01,1.5-.15,2.25-.22,3.75-.35,.98-.09,1.47-.13,2.44-.21,.05,0,.1,0,.15,0,.1,0,.15-.01,.24-.02v.05c.56,.11,1.03,.52,1.13,1.05,1.09,5.71,2.18,11.42,3.27,17.13-1.5,.1-2.25,.16-3.75,.28-.31-1.64-.47-2.46-.78-4.1-2.16,.18-3.24,.27-5.4,.48-.21,.02-.31,.03-.53,.05-.57,.06-.85,.08-1.42,.14,.69,.32,1.04,.48,1.74,.8-.24,1.3-.36,1.94-.6,3.24-1.5,.15-2.25,.23-3.74,.39,.96-5.19,1.91-10.39,2.87-15.58Zm.57,23c-.35,4.3-.53,6.45-.88,10.75-.04,.52-.47,.98-.95,1.03-.83,.09-1.25,.13-2.08,.23v-1.89c.3-.22,.45-.34,.75-.56,.03-.02,.05-.04,.08-.06,.29-3.61,.44-5.41,.73-9.02,.1-1.12,.31-2.09,.71-3.14,.13-.34,.54-.67,.88-.7h0c2.47-.25,3.7-.37,6.17-.58v15.03c-.99,.08-1.49,.13-2.48,.22v-12.69c-1.86,.17-2.78,.26-4.64,.46,.69,.37,1.03,.55,1.72,.92Zm64.19,19.17c-.52-.07-.97-.12-1.24-.12,.42-.05,.9-.08,1.4-.11-.05,.08-.11,.15-.17,.23Zm1.39-1.92c-.26,.38-.55,.75-.81,1.13-1.36-.1-2.61-.18-3.73-.25-2.26,0-3.64-.07-4.54-.23-.18-.03-.37-.05-.56-.07-.11,0-.18,0-.18,0-1.29-.06-2.59-.1-3.88-.15-.44,.03-.89,.06-1.33,.11-4.27,.51-9.45,1.44-8.53,1.93,0,0,9.77,.74,13.53,.83,1.64,.04,4.64,.08,7.61,.07-.61,.83-1.19,1.68-1.81,2.5-2.89,3.86-5.91,7.65-9.01,11.38-.19,.23-.38,.45-.56,.68h-.01c-.2,.24-.39,.48-.59,.72-2.69,3.21-5.42,6.37-8.17,9.51-.43,.5-.87,.99-1.3,1.49-2.35,2.68-4.7,5.33-7.04,7.98-.04,.04-.08,.08-.11,.13-2.37-2.69-4.76-5.39-7.15-8.11-.02-.02-.04-.04-.05-.06-.42-.47-.83-.95-1.25-1.43-2.75-3.14-5.48-6.31-8.17-9.52-.2-.24-.39-.47-.59-.71h0c-.19-.23-.38-.46-.57-.69-1.74-2.1-3.45-4.22-5.14-6.36,1.28,.12,2.53,.15,3.67,.03,4.64-.51-1.61-2.27-5.63-2.88-.1-.02-.19-.03-.27-.04-.07-.09-.14-.17-.2-.26,1.68-.18,8.79-.03,10.52-.03,2.3,0,16.58,.61,18,0,1.42-.61-4.06-1.69-5.89-.95-1.83,.74-7.71-.34-4.26-.81,3.45-.47-6.23-.61-7.85-.14-1.62,.47-4.8-.27-6.9,.41-.66,.21-2.41,.33-4.48,.4-.19-.25-.39-.49-.57-.74-1.45-1.93-2.86-3.88-4.23-5.86-.22-.31-.42-.62-.64-.93,4.45,.08,8.87,.38,12.43,.06,3.7-.33,7.51-2.73,11.65-2.45,6.5,.45,13.11,2.25,19.55,1.97,3.48-.15,5.79-.07,7.23,.56,3.7-.61,8.46-.64,12.7-.51-.3,.44-.59,.88-.89,1.31Zm5.06-5.49c-1.09-2.62-1.64-3.92-2.74-6.53-1.43-.14-2.14-.2-3.57-.33,.75,.55,1.13,.82,1.88,1.37v5.05c-.99-.09-1.49-.14-2.48-.22v-15.03c.99,.08,1.49,.13,2.48,.22v6.43c.67,.06,1.01,.09,1.69,.16,.57-2.22,.86-3.32,1.43-5.54,.1-.4,.53-.7,.92-.66,.93,.1,1.39,.15,2.32,.25v1.89c-.28,.15-.43,.23-.71,.38-.25-.03-.38-.04-.63-.07-.5,2.06-.75,3.1-1.25,5.16,1.29,3.09,1.94,4.64,3.23,7.74-1.03-.12-1.55-.17-2.58-.28Zm-.63-19.42c-1.5-3.17-2.25-4.75-3.75-7.91-.77-.07-1.15-.11-1.92-.17-.78-.07-1.17-.1-1.94-.16,.78,.5,1.17,.75,1.94,1.26v6.45c-1.55-.13-2.33-.2-3.89-.31v-18.58c1.56,.12,2.33,.18,3.89,.31v7.76c.75,.07,1.13,.1,1.88,.17,.76-2.6,1.14-3.9,1.91-6.5,.17-.58,.84-1,1.5-.93,.04,0,.05,0,.09,0,1.33,.14,2,.21,3.33,.36v2.63c-.46,.21-.69,.31-1.15,.52-.29-.03-.44-.05-.74-.08-.66,2.38-.98,3.58-1.64,5.96,1.82,3.85,2.73,5.79,4.55,9.66-1.63-.19-2.44-.28-4.07-.44Zm.37-38.23l-6.86,3.33-.96-5.68-5.86,1.07-4.46,2.9-11.96,1.08,.11,.12s-.08-.09-.12-.13c1.09-1.24,1.82-2.06,3.01-3.4,5.7-1.75,11.59-3.55,17.18-4.57,4.25-.78,10.09,.49,13.88,3.02l.35,.23c3.47,2.31,7.77,5.18,11.12,8.27-1.98-1.33-4.09-2.53-6.11-3.68-1.91-.74-2.87-1.1-4.78-1.8-.1,1.13-.15,1.69-.25,2.82,0,0-2.66-2.76-4.29-3.57Zm13.51,59.3c-.23-1.41-.34-2.12-.57-3.53-2.45-.35-3.67-.51-6.12-.81,.68,.52,1.02,.78,1.71,1.31-.16,.92-.23,1.38-.39,2.31-.95-.12-1.42-.18-2.37-.3,.81-4.82,1.22-7.22,2.03-12.04,.45,.06,.67,.09,1.12,.14-.66-.51-.99-.76-1.65-1.27v-1.66c1.34,.16,2.01,.25,3.35,.42,0,0,0,0,0,.01,.8,.1,1.19,.16,1.99,.26,.02,0,.04,0,.06,.01,.07,.02,.11,.04,.18,.06,.35,.16,.64,.53,.7,.9,.78,4.84,1.56,9.68,2.34,14.52-.95-.14-1.42-.21-2.37-.35Zm2.19-19.05c-.31-1.71-.47-2.57-.78-4.28-2.15-.32-3.23-.47-5.38-.75-.21-.03-.31-.04-.52-.07-.57-.07-.85-.11-1.41-.18,.69,.48,1.04,.72,1.73,1.2-.24,1.24-.36,1.86-.6,3.1-1.49-.19-2.24-.29-3.74-.46,.95-4.97,1.91-9.95,2.87-14.92,.35,.04,.52,.07,.87,.11-.65-.45-.98-.68-1.63-1.13v-2.36c.55,.07,.83,.1,1.38,.18,0,0,0,0,0-.01,1.5,.19,2.24,.29,3.74,.5,.97,.14,1.46,.21,2.43,.35,.05,0,.39,.12,.39,.12,.56,.24,1.03,.76,1.13,1.31,1.08,5.96,2.17,11.91,3.25,17.87-1.49-.24-2.24-.36-3.73-.58Zm6.49-16.56c.2-.48,.8-.84,1.32-.78,3.65,.37,5.76,.78,9.67,1.89h0v21.12c-1.54-.31-2.31-.46-3.85-.76v-6.81c-.77-.12-1.5-.26-2.26-.41-1.18,2.5-1.77,3.75-2.95,6.26-1.62-.28-2.43-.42-4.05-.69,1.02-2.18,1.53-3.26,2.55-5.43,.75-.35,1.12-.53,1.87-.88-.54-.1-.81-.14-1.35-.23,0,0,0,0,0,0-.41-.23-.8-.66-.95-1.08-1.5-4.15-1.5-8.56,0-12.2Z"/>
      <path d="M123.47,100.92c-.45,2.69-.68,4.03-1.13,6.72,1.39,.18,2.08,.28,3.46,.47-.45-2.81-.68-4.22-1.13-7.03-.48-.07-.72-.1-1.2-.16Z"/>
      <path d="M142.57,89.36v-7.08c-1.36-.3-2.6-.52-4.04-.7-.48,2.21-.48,4.6,0,6.99,1.44,.33,2.69,.58,4.04,.8Z"/>
      <path d="M124.84,79.13c-.59,3.05-.88,4.58-1.47,7.63,1.67,.22,2.5,.34,4.17,.58-.59-3.22-.88-4.83-1.47-8.05-.49-.07-.74-.1-1.23-.17Z"/>
      <path d="M76,81.85v6.23c1.37,.03,2.63,.02,4.08-.03,.48-2.02,.48-4.12,0-6.15-1.45-.08-2.71-.09-4.08-.05Z"/>
      <path d="M56.5,98.47c-.46,2.78-.68,4.16-1.14,6.94,1.39-.09,2.09-.13,3.48-.2-.46-2.72-.68-4.09-1.14-6.81-.48,.03-.72,.04-1.2,.07Z"/>
      <path d="M47.28,77.18c-.5,.04-.74,.07-1.24,.11-.59,3.19-.88,4.78-1.47,7.97,1.67-.16,2.51-.23,4.18-.37-.59-3.08-.88-4.63-1.47-7.71Z"/>
      <path d="M30.24,78.87v6.23c1.36-.15,2.62-.33,4.06-.57,.48-2.08,.48-4.19,0-6.15-1.45,.12-2.7,.27-4.06,.49Z"/>
      <path d="M125.46,75.94s0,0,0-.01c0,0,0,0,0,.01,0,0,0,0,0,0Z"/>
      <path d="M46.66,73.95s0,0,0-.01c0,0,0,0,0,.01,0,0,0,0,0,0Z"/>
      <path class="cls-3" d="M16.84,79.7s.05-.15,.1-.39l-.1,.39Z"/>
      <path class="cls-2" d="M90.73,38.95l-2.85,1.67-2.5,3.45s-6.04,5.51-9.03,8.29c-.72,.55-1.17,.9-1.77,1.36l9.52-5.17,2.51-2.78,.52-.67,2.12-3.28,3.02,1.83,1.15-4.53s-.04-.02-.06-.04l-2.65-.14Z"/>
      <path class="cls-2" d="M85.34,33.69l-8.65-.46-10.86-1.54-10.04,4.74c-.85,.83-5.68,5.57-7.52,7.11-3.63,2.34-7.18,4.69-10.68,7.01-1.51,1-3,1.98-4.49,2.96h.05s17.33-9.3,17.33-9.3l2.17,.81,5.09-5.63,5.36-.15,1.48-2.83,3.82-.49,8.16-2.68-7.05,9.57s-.83,4.47-1.04,7.9c1.9-3.69,3.85-7.62,3.85-7.62l4.44-2.07,2.77-5.1,4.09,4.09,2.2-3.6,4.88,2.56s-1.4-1.74-2.93-3.63c-1.13-.76-2.05-1.37-2.45-1.64Z"/>
      <path class="cls-2" d="M53.75,57.41l9.66,5.64-5.46-8.64,8.04,.21,15.01,3.62c-2.19-.75-11.18-3.91-14.49-5.99-.59,.02-1.22,.05-1.86,.08-3.73,.19-7.96,.4-10.29-1.05-.77-.32-5.22,.35-8.98,1.2-.72,.55-2.29,1.59-2.48,1.72l-.19,.13-11.55,1.43-6.02,3.12c-.25,1.52-.46,3.2-.44,3.71l.31,.53-.54,.54c-.85,.85-1.66,1.81-2.14,2.49,.1-.01,.2-.02,.31-.02l3.77-1.07,9.04-7.33,10.18,4.19,8.12-4.51Z"/>
      <path class="cls-2" d="M117.77,55.49c1.92,.7,2.87,1.06,4.78,1.8,2.02,1.15,4.14,2.35,6.11,3.68-3.34-3.08-7.65-5.96-11.12-8.27l-.35-.23c-3.79-2.52-9.63-3.79-13.88-3.02-5.59,1.02-11.48,2.82-17.18,4.57-1.19,1.34-1.92,2.16-3.01,3.4,.04,.04,.08,.09,.12,.13l-.11-.12,11.96-1.08,4.46-2.9,5.86-1.07,.96,5.68,6.86-3.33c1.63,.81,4.29,3.57,4.29,3.57,.1-1.13,.15-1.69,.25-2.82Z"/>
      <path class="cls-1" d="M68.71,91.25v-18.58c-.72,.02-1.08,.03-1.8,.05-.84,.03-1.26,.04-2.1,.07-1.73,.06-2.6,.1-4.33,.18h0c-.16,0-.33,.02-.5,.03-.56,.03-1.21,.45-1.43,.95-.55,1.25-.86,2.44-.99,3.82-.4,4.29-.6,6.43-1,10.72,0,0,0,0,0,0-.46,.28-.69,.43-1.14,.71v2.63c.33-.02,.5-.03,.84-.05,.5-.03,.74-.05,1.24-.07,.41-.02,.62-.03,1.03-.06,.78-.04,1.48-.68,1.55-1.41,.48-5.11,.72-7.66,1.2-12.77,.01-.11,.02-.17,.04-.28-.7-.36-1.05-.54-1.75-.9,.37-.02,.56-.03,.93-.05,.41-.02,.61-.03,1.02-.05,1.32-.06,1.98-.09,3.31-.14v15.3c1.56-.06,2.34-.08,3.89-.12Z"/>
      <path class="cls-1" d="M114.03,77.79c.29,.03,.44,.05,.74,.08,.46-.21,.69-.31,1.15-.52v-2.63c-1.33-.15-2-.22-3.33-.36-.04,0-.05,0-.09,0-.66-.07-1.33,.35-1.5,.93-.76,2.6-1.14,3.9-1.91,6.5-.75-.07-1.13-.1-1.88-.17v-7.76c-1.55-.13-2.33-.2-3.89-.31v18.58c1.56,.12,2.33,.18,3.89,.31v-6.45c-.78-.5-1.17-.76-1.94-1.26,.78,.06,1.17,.1,1.94,.16,.77,.07,1.15,.1,1.92,.17,1.5,3.16,2.25,4.74,3.75,7.91,1.63,.17,2.44,.26,4.07,.44-1.82-3.88-2.73-5.81-4.55-9.66,.66-2.39,.99-3.58,1.64-5.96Z"/>
      <path class="cls-1" d="M81.87,78.73c-2.19-.17-3.83-.22-5.63-.17-.54,.01-1.1,.04-1.69,.07,.58-.33,.87-.49,1.45-.82v-5.24c-1.56,0-2.34,.01-3.89,.04v18.58c3.95,.21,6.09,.24,9.77,.05,.53-.03,1.13-.42,1.33-.87,1.51-3.4,1.51-7.28,0-10.74-.2-.46-.81-.87-1.33-.91Zm-1.79,9.31c-1.45,.05-2.71,.07-4.08,.03v-6.23c1.37-.04,2.63-.03,4.08,.05,.48,2.03,.48,4.13,0,6.15Z"/>
      <path class="cls-1" d="M36.09,74.98c-3.66,.21-5.79,.51-9.72,1.37h0s0,0,0,0v18.58c1.55-.23,2.32-.34,3.87-.55v-5.06c-.68-.29-1.02-.43-1.7-.72,.41-.06,.61-.09,1.02-.14,.31-.03,.62-.06,.92-.1,1.79-.2,3.43-.47,5.61-.87,.52-.1,1.13-.57,1.33-1.04,1.51-3.6,1.51-7.48,0-10.74-.2-.43-.8-.76-1.33-.73Zm-1.78,9.55c-1.45,.25-2.7,.42-4.06,.57v-6.23c1.36-.22,2.62-.38,4.06-.49,.48,1.96,.48,4.07,0,6.15Z"/>
      <path class="cls-1" d="M17.66,88.14c-.63,.11-.95,.17-1.58,.28-.73,.13-1.09,.2-1.82,.33-.04,0-.06,.01-.11,.02,.6-.5,.9-.75,1.51-1.25-.94-3.58-1.4-5.37-2.34-8.95-1.51,.28-2.26,.43-3.77,.73,1.28,4.89,1.92,7.33,3.2,12.23,.17,.64,.84,1.07,1.49,.95,0,0,0,0,.02,0,.99-.18,1.49-.27,2.48-.45-.14,.61-.21,.91-.36,1.51-.16,.69-.35,1.34-.55,1.96-.5,.09-.75,.14-1.25,.23-.46,.38-.68,.57-1.14,.94v2.99c1.26-.24,1.89-.35,3.16-.58h0c.2-.04,.39-.07,.56-.1,.48-.08,1.08-.55,1.32-1.04,.55-1.09,.93-2.27,1.42-4.22,0,0,0,0,0,0,.03-.14,.05-.22,.09-.36,.01-.05,.03-.1,.04-.16h0c1.32-5.49,2.64-10.99,3.96-16.48-1.51,.24-2.27,.36-3.78,.61-1.02,4.31-1.53,6.47-2.55,10.79Z"/>
      <path class="cls-1" d="M136.38,91.72s0,0,0,0c.54,.09,.81,.14,1.35,.23-.75,.35-1.12,.52-1.87,.88-1.02,2.17-1.53,3.25-2.55,5.43,1.62,.26,2.43,.4,4.05,.69,1.18-2.51,1.77-3.76,2.95-6.26,.75,.15,1.49,.28,2.26,.41v6.81c1.54,.29,2.31,.45,3.85,.76v-21.12h0c-3.91-1.1-6.02-1.52-9.67-1.89-.52-.05-1.12,.3-1.32,.78-1.5,3.64-1.5,8.05,0,12.2,.15,.42,.54,.85,.95,1.08Zm2.14-10.14c1.44,.18,2.69,.4,4.04,.7v7.08c-1.36-.22-2.6-.47-4.04-.8-.48-2.38-.48-4.77,0-6.99Z"/>
      <path class="cls-1" d="M43.77,89.59c-.69-.32-1.04-.48-1.74-.8,.57-.06,.85-.09,1.42-.14,.21-.02,.32-.03,.53-.05,2.16-.21,3.24-.31,5.4-.48,.31,1.64,.47,2.46,.78,4.1,1.5-.12,2.25-.17,3.75-.28-1.09-5.71-2.18-11.42-3.27-17.13-.1-.53-.58-.95-1.13-1.05v-.05c-.1,0-.15,.01-.24,.02-.05,0-.1,0-.15,0-.98,.08-1.47,.12-2.44,.21,0,0,0,0,0,.01,0,0,0,0,0,0,0,0,0,0,0-.01-1.5,.13-2.25,.2-3.75,.35,0,0,0,0,0,.01-.55,.06-.83,.08-1.38,.14v2.36c.65,.3,.98,.45,1.63,.75-.35,.03-.52,.05-.87,.09-.96,5.19-1.91,10.39-2.87,15.58,1.5-.17,2.25-.24,3.74-.39,.24-1.3,.36-1.94,.6-3.24Zm2.27-12.31c.5-.05,.74-.07,1.24-.11,.59,3.08,.88,4.62,1.47,7.71-1.67,.14-2.51,.21-4.18,.37,.59-3.19,.88-4.78,1.47-7.97Z"/>
      <path class="cls-1" d="M128.29,76.39s-.34-.11-.39-.12c-.97-.14-1.46-.21-2.43-.35,0,0,0,0,0,.01,0,0,0,0,0,0,0,0,0,0,0-.01-1.49-.21-2.24-.31-3.74-.5,0,0,0,0,0,.01-.55-.07-.83-.11-1.38-.18v2.36c.65,.45,.98,.68,1.63,1.13-.35-.05-.52-.07-.87-.11-.96,4.97-1.91,9.95-2.87,14.92,1.5,.18,2.24,.27,3.74,.46,.24-1.24,.36-1.86,.6-3.1-.69-.48-1.04-.72-1.73-1.2,.57,.07,.85,.11,1.41,.18,.21,.03,.31,.04,.52,.07,2.15,.28,3.23,.44,5.38,.75,.31,1.71,.47,2.57,.78,4.28,1.49,.22,2.24,.34,3.73,.58-1.08-5.96-2.16-11.91-3.25-17.87-.1-.55-.57-1.08-1.13-1.31Zm-4.91,10.37c.59-3.06,.88-4.58,1.47-7.63,.49,.07,.74,.1,1.23,.17,.59,3.22,.88,4.83,1.47,8.05-1.67-.24-2.5-.36-4.17-.58Z"/>
      <path class="cls-1" d="M95.8,76.16c.16,.84,.29,1.66,.38,2.48,1.56,.08,2.33,.13,3.89,.23-.17-1.47-.44-2.97-.81-4.54-.14-.6-.78-1.16-1.43-1.23-3.24-.39-5.28-.48-8.52-.4-.64,.02-1.31,.53-1.43,1.09-1.22,5.95-1.21,10.49,0,16.45,.12,.57,.78,1.12,1.42,1.18,3.23,.31,5.28,.4,8.52,.4,.64,0,1.28-.47,1.43-1.05,.37-1.52,.64-2.99,.82-4.44-1.56-.1-2.33-.15-3.89-.23-.1,.8-.23,1.61-.38,2.44-1.55-.02-2.91-.09-4.46-.21-.74-3.95-.79-7.58-.16-11.41-.69-.42-1.04-.62-1.73-1.04,.76,.03,1.14,.04,1.91,.07,1.54,0,2.9,.07,4.44,.21Z"/>
      <path class="cls-2" d="M45.78,111.96c.99-.09,1.49-.13,2.48-.22v-15.03c-2.47,.21-3.71,.32-6.17,.58h0c-.34,.03-.75,.36-.88,.7-.4,1.05-.62,2.02-.71,3.14-.29,3.61-.44,5.41-.73,9.02-.03,.02-.05,.04-.08,.06-.3,.22-.45,.34-.75,.56v1.89c.83-.09,1.25-.14,2.08-.23,.48-.05,.91-.51,.95-1.03,.35-4.3,.53-6.45,.88-10.75-.69-.37-1.03-.56-1.72-.92,1.85-.19,2.78-.29,4.64-.46v12.69Z"/>
      <path class="cls-2" d="M114.1,99.77c.25,.03,.38,.04,.63,.07,.28-.15,.42-.23,.71-.38v-1.89c-.93-.1-1.39-.15-2.32-.25-.4-.04-.82,.26-.92,.66-.57,2.21-.86,3.32-1.43,5.54-.67-.07-1.01-.1-1.69-.16v-6.43c-.99-.09-1.49-.14-2.48-.22v15.03c.99,.08,1.49,.13,2.48,.22v-5.05c-.75-.55-1.13-.82-1.88-1.37,1.43,.12,2.14,.19,3.57,.33,1.09,2.61,1.64,3.91,2.74,6.53,1.03,.11,1.55,.16,2.58,.28-1.29-3.1-1.94-4.65-3.23-7.74,.5-2.07,.75-3.1,1.25-5.16Z"/>
      <path class="cls-2" d="M33.82,100.57c.25-.03,.37-.05,.62-.08,.28-.22,.42-.33,.71-.54v-1.89c-.93,.11-1.39,.17-2.31,.29-.4,.05-.82,.45-.92,.88-.57,2.35-.85,3.52-1.42,5.87-.67,.09-1.01,.14-1.68,.23v-6.43c-.99,.14-1.48,.21-2.47,.36v15.03c.99-.15,1.48-.22,2.47-.36,0-2.02,0-3.03,0-5.05-.75-.37-1.12-.56-1.87-.93,1.42-.21,2.13-.31,3.56-.5,1.09,2.35,1.64,3.53,2.73,5.89,1.03-.13,1.55-.2,2.58-.32-1.29-2.8-1.94-4.2-3.23-6.99,.5-2.18,.75-3.27,1.24-5.45Z"/>
      <path class="cls-2" d="M102.42,111.42v-15.03c-1.16-.08-1.73-.12-2.89-.2-1.71,3.8-2.57,5.7-4.28,9.52v-9.76c-.99-.05-1.49-.08-2.49-.12v15.03c1.11,.05,1.66,.08,2.76,.13,1.76-3.93,2.64-5.89,4.41-9.8v10.06c.99,.06,1.49,.1,2.48,.17Z"/>
      <path class="cls-2" d="M59.8,110.95c.95-.05,1.43-.07,2.38-.11-.78-4.69-1.57-9.38-2.35-14.06-.06-.36-.35-.67-.7-.76-.07-.01-.11-.02-.18-.03-.02,0-.04,0-.06,0-.8,.05-1.2,.07-2,.12,0,0,0,0,0-.01-1.34,.08-2.02,.13-3.36,.23v1.66c.66,.38,.99,.57,1.66,.95-.45,.03-.67,.04-1.12,.07-.81,4.97-1.22,7.46-2.03,12.43,.95-.07,1.43-.1,2.38-.17,.16-.95,.23-1.43,.39-2.38-.68-.39-1.03-.59-1.71-.98,2.46-.17,3.69-.25,6.15-.38,.23,1.37,.34,2.05,.57,3.42Zm-4.44-5.54c.46-2.78,.68-4.17,1.14-6.94,.48-.03,.72-.04,1.2-.07,.46,2.72,.68,4.09,1.14,6.81-1.39,.07-2.09,.12-3.48,.2Z"/>
      <path class="cls-2" d="M126.08,98.97c-.07-.02-.11-.04-.18-.06-.02,0-.04-.01-.06-.01-.8-.11-1.19-.16-1.99-.26,0,0,0,0,0-.01-1.34-.18-2.01-.26-3.35-.42v1.66c.66,.51,.99,.76,1.65,1.27-.45-.06-.67-.09-1.12-.14-.81,4.81-1.22,7.22-2.03,12.04,.95,.11,1.42,.17,2.37,.3,.16-.92,.23-1.38,.39-2.31-.68-.53-1.02-.79-1.71-1.31,2.45,.3,3.68,.47,6.12,.81,.23,1.41,.34,2.12,.57,3.53,.95,.14,1.42,.21,2.37,.35-.78-4.84-1.56-9.68-2.34-14.52-.06-.37-.35-.74-.7-.9Zm-3.75,8.67c.45-2.69,.68-4.03,1.13-6.72,.48,.06,.72,.1,1.2,.16,.45,2.81,.68,4.22,1.13,7.03-1.38-.2-2.08-.29-3.46-.47Z"/>
      <path class="cls-2" d="M71.66,97.72c.06,0,.09,0,.14,0,0,.06,.01,.09,.02,.15,.11,.66,.2,1.28,.26,1.88,.99-.02,1.49-.02,2.48-.03-.13-1.13-.31-2.28-.57-3.49-.09-.41-.49-.77-.88-.8-1.18-.07-2.14-.09-3.1-.07-.96,.02-1.92,.08-3.09,.2-.39,.04-.79,.43-.88,.83-.93,4.06-.95,9.5,0,13.56,.09,.39,.49,.76,.88,.77,2.35,.09,3.85,.06,6.2-.13,.39-.03,.79-.4,.88-.81,.26-1.22,.44-2.36,.57-3.5-.99,0-1.49,.01-2.49,.03-.07,.6-.15,1.22-.26,1.89-.01,.06-.01,.09-.02,.15-.06,0-.09,0-.14,0-1.14,.07-2.14,.09-3.27,.07-.06,0-.09,0-.14,0-.01-.06-.01-.09-.03-.15-.54-3.2-.58-6.19-.14-9.39-.68-.42-1.02-.63-1.71-1.04,.81-.03,1.22-.04,2.03-.06,1.12-.08,2.13-.1,3.25-.07Z"/>
      <path class="cls-2" d="M83.85,95.36c-.96-.02-1.92,0-3.09,.08-.39,.02-.79,.39-.88,.79-.94,4.06-.94,9.5,0,13.56,.09,.4,.49,.77,.88,.81,2.35,.19,3.85,.21,6.2,.12,.39-.02,.79-.37,.88-.77,.26-1.21,.44-2.35,.57-3.48-.99-.03-1.49-.05-2.48-.07-.07,.6-.15,1.21-.26,1.88,0,.06-.01,.09-.02,.15-.06,0-.09,0-.14,0-1.13,.02-2.14,0-3.27-.06-.06,0-.08,0-.14,0-.01-.06-.01-.09-.03-.15-.54-3.22-.58-6.21-.14-9.4-.68-.44-1.02-.67-1.71-1.11,.81,0,1.22,.01,2.03,.02,1.12-.03,2.13-.01,3.25,.06,.06,0,.09,0,.14,0,0,.06,.01,.09,.02,.15,.11,.67,.2,1.29,.26,1.89,.99,.02,1.49,.04,2.48,.07-.13-1.14-.31-2.29-.57-3.51-.09-.41-.49-.79-.88-.83-1.18-.11-2.14-.17-3.1-.19Z"/>
      <g>
        <path d="M76.4,132.72c-.85-.06-1.44-.06-2.29,0-.25,.02-.47,.2-.53,.45-.42,1.92-.42,3.57,0,5.49,.05,.25,.27,.43,.53,.45,.85,.06,1.44,.06,2.29,0,.25-.02,.47-.2,.53-.45,.42-1.92,.42-3.57,0-5.49-.05-.25-.27-.43-.53-.45Zm-.48,5.36v.06s-.07,0-.07,0c-.2,0-.4,.01-.6,.01s-.39,0-.59-.01h-.06s0-.06,0-.06c-.26-1.48-.26-2.85,0-4.33v-.06s.07,0,.07,0c.41-.02,.79-.02,1.19,0h.06s0,.06,0,.06c.26,1.48,.26,2.85,0,4.33Z"/>
        <path d="M69.52,137.3v-.03s1.76-.78,1.76-.78c.32-.14,.56-.42,.64-.76,.2-.86,.16-1.75-.11-2.59-.07-.23-.28-.39-.52-.4-.27-.02-.5-.03-.72-.04h-.16c-.63-.02-1.2,0-2.08,.06,0,.39,0,.61,0,1,1.03-.08,1.65-.09,2.43-.05h.06s0,.06,0,.06c.1,.57,.1,1.15,0,1.72v.04s-1.66,.73-1.66,.73c-.28,.13-.51,.36-.61,.65-.12,.36-.2,.73-.24,1.11v1.06h3.66v-1h-2.6l.04-.36c.02-.13,.04-.27,.08-.43Z"/>
        <path d="M79.52,137.3v-.03s1.76-.78,1.76-.78c.32-.14,.56-.42,.64-.76,.2-.86,.16-1.75-.11-2.58-.07-.23-.28-.39-.52-.4-.3-.02-.57-.03-.81-.04h-.06c-.63-.02-1.2,0-2.08,.06v1c1.03-.07,1.65-.09,2.43-.05h.06s.01,.06,.01,.06c.1,.57,.1,1.15,0,1.72v.04s-1.66,.73-1.66,.73c-.28,.13-.51,.36-.61,.65-.12,.36-.2,.73-.24,1.11v1.06h3.66v-1h-2.6l.04-.36c.02-.13,.05-.27,.08-.43Z"/>
        <path d="M86.87,137.69c.05,0,.11,0,.16,0v-1c-.06,0-.11,0-.17,0h-.15s-.06,0-.06,0v-2.63h-1.13v2.6h-.07c-.16,0-.31,0-.47,0-.24,0-.47,0-.71,0h-.08s0,0,0,0h-.65l.21-.12,.54-.32,.75-3.42h-1.16l-.72,3.26c-.08,.38-.13,.77-.13,1.15l1.05,.47c.28,0,.57,0,.85,0,.17,0,.34,0,.51,0h.07v1.39h1.13v-1.37h.07s.15,0,.15,0Z"/>
      </g>
    </g>
  </g>
</svg>