<svg width="24" height="24" viewBox="0 0 24 24" fill="none" xmlns="http://www.w3.org/2000/svg">
<path fill-rule="evenodd" clip-rule="evenodd" d="M12 1.25003L11.8263 1.25001C9.66075 1.24975 8.37616 1.2496 7.29285 1.62849C5.58835 2.22464 4.19378 3.47889 3.42088 5.11085C2.92965 6.14807 2.79408 7.42549 2.56554 9.57896L2.54719 9.75171L2.31078 11.9768L2.30765 12.0062C2.14821 13.5068 2.02434 14.6727 1.99129 15.6135C1.95783 16.5663 2.01391 17.3499 2.2481 18.0749C2.83779 19.9004 4.17641 21.3888 5.92944 22.1681C6.62562 22.4775 7.39888 22.6161 8.34988 22.6835C9.28892 22.75 10.4614 22.75 11.9704 22.75H12H12.0297C13.5387 22.75 14.7111 22.75 15.6502 22.6835C16.6012 22.6161 17.3744 22.4775 18.0706 22.1681C19.8237 21.3888 21.1623 19.9004 21.752 18.0749C21.9862 17.3499 22.0422 16.5663 22.0088 15.6135C21.9757 14.6727 21.8519 13.5069 21.6924 12.0064L21.6924 12.0062L21.6893 11.9768L21.4529 9.75171L21.4345 9.57895C21.206 7.42549 21.0704 6.14807 20.5792 5.11085C19.8063 3.47889 18.4117 2.22464 16.7072 1.62849C15.6239 1.2496 14.3393 1.24975 12.1738 1.25001L12 1.25003ZM7.78806 3.04439C8.59981 2.76048 9.60758 2.75003 12 2.75003C14.3925 2.75003 15.4003 2.76048 16.212 3.04439C17.5377 3.50806 18.6224 4.48358 19.2235 5.75289C19.5916 6.5301 19.7085 7.53113 19.9613 9.91019L20.1977 12.1352C20.3609 13.6714 20.4787 14.7847 20.5097 15.6662C20.5405 16.5418 20.4819 17.1269 20.3246 17.6138C19.8659 19.0337 18.8248 20.1913 17.4613 20.7974C16.9938 21.0052 16.4182 21.1253 15.5442 21.1872C14.6643 21.2496 13.5449 21.25 12 21.25C10.4552 21.25 9.33573 21.2496 8.45591 21.1872C7.5819 21.1253 7.00627 21.0052 6.53874 20.7974C5.17528 20.1913 4.13413 19.0337 3.67548 17.6138C3.51821 17.1269 3.45961 16.5418 3.49037 15.6662C3.52133 14.7847 3.63917 13.6714 3.80239 12.1352L4.0388 9.91019C4.29157 7.53113 4.40844 6.5301 4.77653 5.75289C5.37768 4.48358 6.46234 3.50806 7.78806 3.04439ZM9.75015 9.00003C9.75015 10.2427 10.7575 11.25 12.0002 11.25C13.2428 11.25 14.2502 10.2427 14.2502 9.00003V7.00003C14.2502 6.58581 14.5859 6.25003 15.0002 6.25003C15.4144 6.25003 15.7502 6.58581 15.7502 7.00003V9.00003C15.7502 11.0711 14.0712 12.75 12.0002 12.75C9.92909 12.75 8.25015 11.0711 8.25015 9.00003V7.00003C8.25015 6.58581 8.58594 6.25003 9.00015 6.25003C9.41437 6.25003 9.75015 6.58581 9.75015 7.00003V9.00003Z" fill="#020304"/>
</svg>
