<svg width="24" height="25" viewBox="0 0 24 25" fill="none" xmlns="http://www.w3.org/2000/svg">
<path fill-rule="evenodd" clip-rule="evenodd" d="M4.75 6.5C4.75 4.70507 6.20507 3.25 8 3.25C9.79493 3.25 11.25 4.70507 11.25 6.5C11.25 8.29493 9.79493 9.75 8 9.75C6.20507 9.75 4.75 8.29493 4.75 6.5ZM8 1.75C5.37665 1.75 3.25 3.87665 3.25 6.5C3.25 9.12335 5.37665 11.25 8 11.25C10.6234 11.25 12.75 9.12335 12.75 6.5C12.75 3.87665 10.6234 1.75 8 1.75ZM15 1.75C14.5858 1.75 14.25 2.08579 14.25 2.5C14.25 2.91421 14.5858 3.25 15 3.25C16.7949 3.25 18.25 4.70507 18.25 6.5C18.25 8.29493 16.7949 9.75 15 9.75C14.5858 9.75 14.25 10.0858 14.25 10.5C14.25 10.9142 14.5858 11.25 15 11.25C17.6234 11.25 19.75 9.12335 19.75 6.5C19.75 3.87665 17.6234 1.75 15 1.75ZM0.25 19.3C0.25 16.2348 2.73482 13.75 5.8 13.75H10.2C13.2652 13.75 15.75 16.2348 15.75 19.3C15.75 21.4815 13.9815 23.25 11.8 23.25H4.2C2.01848 23.25 0.25 21.4815 0.25 19.3ZM5.8 15.25C3.56325 15.25 1.75 17.0632 1.75 19.3C1.75 20.6531 2.8469 21.75 4.2 21.75H11.8C13.1531 21.75 14.25 20.6531 14.25 19.3C14.25 17.0632 12.4368 15.25 10.2 15.25H5.8ZM17 13.75C16.5858 13.75 16.25 14.0858 16.25 14.5C16.25 14.9142 16.5858 15.25 17 15.25H18.2C20.4368 15.25 22.25 17.0632 22.25 19.3C22.25 20.6531 21.1531 21.75 19.8 21.75H17C16.5858 21.75 16.25 22.0858 16.25 22.5C16.25 22.9142 16.5858 23.25 17 23.25H19.8C21.9815 23.25 23.75 21.4815 23.75 19.3C23.75 16.2348 21.2652 13.75 18.2 13.75H17Z" fill="white"/>
</svg>
