<svg width="25" height="24" viewBox="0 0 25 24" fill="none" xmlns="http://www.w3.org/2000/svg">
<path d="M3.5 13H4.5V20C4.5 21.103 5.397 22 6.5 22H18.5C19.603 22 20.5 21.103 20.5 20V13H21.5C21.6978 12.9999 21.891 12.9413 22.0555 12.8314C22.2199 12.7215 22.348 12.5653 22.4237 12.3826C22.4993 12.1999 22.5192 11.9989 22.4806 11.8049C22.442 11.611 22.3468 11.4328 22.207 11.293L13.207 2.29297C13.0195 2.1055 12.7652 2.00018 12.5 2.00018C12.2348 2.00018 11.9805 2.1055 11.793 2.29297L2.793 11.293C2.65319 11.4328 2.55798 11.611 2.51942 11.8049C2.48085 11.9989 2.50065 12.1999 2.57632 12.3826C2.65199 12.5653 2.78013 12.7215 2.94454 12.8314C3.10895 12.9413 3.30225 12.9999 3.5 13ZM10.5 20V15H14.5V20H10.5ZM12.5 4.41397L18.5 10.414V15L18.501 20H16.5V15C16.5 13.897 15.603 13 14.5 13H10.5C9.397 13 8.5 13.897 8.5 15V20H6.5V10.414L12.5 4.41397Z" fill="white"/>
</svg>
