<svg width="24" height="25" viewBox="0 0 24 25" fill="none" xmlns="http://www.w3.org/2000/svg">
<path fill-rule="evenodd" clip-rule="evenodd" d="M3.75 11C3.75 6.46961 7.35656 3.25 12 3.25C16.6434 3.25 20.25 6.46961 20.25 11C20.25 14.6809 18.6156 17.3687 16.7344 19.1497C15.7909 20.0429 14.7906 20.7021 13.9169 21.1352C13.0184 21.5805 12.3293 21.7498 12 21.7498C11.6707 21.7498 10.9816 21.5805 10.0831 21.1352C9.20941 20.7021 8.20906 20.0429 7.26563 19.1497C5.3844 17.3687 3.75 14.6809 3.75 11ZM12 1.75C6.64344 1.75 2.25 5.53039 2.25 11C2.25 15.1709 4.1156 18.2331 6.23437 20.239C7.29094 21.2393 8.41559 21.9828 9.41692 22.4791C10.3934 22.9631 11.3293 23.2498 12 23.2498C12.6707 23.2498 13.6066 22.9631 14.5831 22.4791C15.5844 21.9828 16.7091 21.2393 17.7656 20.239C19.8844 18.2331 21.75 15.1709 21.75 11C21.75 5.53039 17.3566 1.75 12 1.75ZM9.75 11.5C9.75 10.2574 10.7574 9.25 12 9.25C13.2426 9.25 14.25 10.2574 14.25 11.5C14.25 12.7426 13.2426 13.75 12 13.75C10.7574 13.75 9.75 12.7426 9.75 11.5ZM12 7.75C9.92893 7.75 8.25 9.42893 8.25 11.5C8.25 13.5711 9.92893 15.25 12 15.25C14.0711 15.25 15.75 13.5711 15.75 11.5C15.75 9.42893 14.0711 7.75 12 7.75Z" fill="white"/>
</svg>
