<svg width="24" height="25" viewBox="0 0 24 25" fill="none" xmlns="http://www.w3.org/2000/svg">
<path fill-rule="evenodd" clip-rule="evenodd" d="M5.60002 2.75002L5.53058 2.75001C5.04011 2.74991 4.70598 2.74984 4.41339 2.79619C2.80879 3.05033 1.55033 4.30879 1.29619 5.91339C1.24984 6.20598 1.24991 6.54011 1.25001 7.03058L1.25002 7.10002V9.32355C1.25002 9.83522 1.66481 10.25 2.17649 10.25C3.32167 10.25 4.25002 11.1784 4.25002 12.3235V12.6765C4.25002 13.8217 3.32167 14.75 2.17649 14.75C1.66481 14.75 1.25002 15.1648 1.25002 15.6765V17.9L1.25001 17.9695C1.24991 18.4599 1.24984 18.7941 1.29619 19.0866C1.55033 20.6912 2.80879 21.9497 4.41339 22.2038C4.70598 22.2502 5.04012 22.2501 5.53059 22.25L5.60002 22.25H18.4L18.4694 22.25C18.9599 22.2501 19.2941 22.2502 19.5866 22.2038C21.1912 21.9497 22.4497 20.6912 22.7038 19.0866C22.7502 18.7941 22.7501 18.4599 22.75 17.9694L22.75 17.9V15.6765C22.75 15.1648 22.3352 14.75 21.8235 14.75C20.6784 14.75 19.75 13.8217 19.75 12.6765V12.3235C19.75 11.1784 20.6784 10.25 21.8235 10.25C22.3352 10.25 22.75 9.83522 22.75 9.32355V7.10002L22.75 7.03059C22.7501 6.54012 22.7502 6.20598 22.7038 5.91339C22.4497 4.30879 21.1912 3.05033 19.5866 2.79619C19.2941 2.74984 18.9599 2.74991 18.4695 2.75001L18.4 2.75002H5.60002ZM4.64804 4.27772C4.80824 4.25235 5.01395 4.25002 5.60002 4.25002H18.4C18.9861 4.25002 19.1918 4.25235 19.352 4.27772C20.3148 4.4302 21.0698 5.18528 21.2223 6.14804C21.2477 6.30824 21.25 6.51395 21.25 7.10002V8.7958C19.5491 9.0702 18.25 10.5452 18.25 12.3235V12.6765C18.25 14.4549 19.5491 15.9298 21.25 16.2042V17.9C21.25 18.4861 21.2477 18.6918 21.2223 18.852C21.0698 19.8148 20.3148 20.5698 19.352 20.7223C19.1918 20.7477 18.9861 20.75 18.4 20.75H5.60002C5.01395 20.75 4.80824 20.7477 4.64804 20.7223C3.68528 20.5698 2.9302 19.8148 2.77772 18.852C2.75235 18.6918 2.75002 18.4861 2.75002 17.9V16.2042C4.45097 15.9298 5.75002 14.4549 5.75002 12.6765V12.3235C5.75002 10.5452 4.45097 9.0702 2.75002 8.7958V7.10002C2.75002 6.51395 2.75235 6.30824 2.77772 6.14804C2.9302 5.18528 3.68528 4.4302 4.64804 4.27772ZM9.75002 11.5C9.75002 11.0858 9.41423 10.75 9.00002 10.75C8.5858 10.75 8.25002 11.0858 8.25002 11.5V13.5C8.25002 13.9142 8.5858 14.25 9.00002 14.25C9.41423 14.25 9.75002 13.9142 9.75002 13.5L9.75002 11.5ZM9.00002 5.75002C9.41423 5.75002 9.75002 6.0858 9.75002 6.50002L9.75002 8.50002C9.75002 8.91423 9.41423 9.25002 9.00002 9.25002C8.5858 9.25002 8.25002 8.91423 8.25002 8.50002V6.50002C8.25002 6.0858 8.5858 5.75002 9.00002 5.75002ZM9.75002 16.5C9.75002 16.0858 9.41423 15.75 9.00002 15.75C8.5858 15.75 8.25002 16.0858 8.25002 16.5V18.5C8.25002 18.9142 8.5858 19.25 9.00002 19.25C9.41423 19.25 9.75002 18.9142 9.75002 18.5L9.75002 16.5Z" fill="white"/>
</svg>
