<svg width="19" height="16" viewBox="0 0 19 16" fill="none" xmlns="http://www.w3.org/2000/svg">
<path d="M17.7171 9.06003C17.998 8.77878 18.1558 8.39754 18.1558 8.00003C18.1558 7.60253 17.998 7.22128 17.7171 6.94003L12.0611 1.28103C11.7797 0.999639 11.398 0.841553 11.0001 0.841553C10.6021 0.841553 10.2205 0.999639 9.93908 1.28103C9.65769 1.56243 9.4996 1.94408 9.4996 2.34203C9.4996 2.73999 9.65769 3.12164 9.93908 3.40303L13.0351 6.50003L1.50008 6.50003C1.10225 6.50003 0.720726 6.65807 0.43942 6.93937C0.158115 7.22068 7.98517e-05 7.60221 7.98517e-05 8.00003C7.98517e-05 8.39786 0.158115 8.77939 0.43942 9.06069C0.720726 9.342 1.10225 9.50003 1.50008 9.50003L13.0351 9.50003L9.93908 12.596C9.79975 12.7354 9.68922 12.9008 9.61382 13.0828C9.53841 13.2649 9.4996 13.46 9.4996 13.657C9.4996 13.8541 9.53841 14.0492 9.61382 14.2312C9.68922 14.4133 9.79975 14.5787 9.93908 14.718C10.0784 14.8574 10.2438 14.9679 10.4259 15.0433C10.6079 15.1187 10.803 15.1575 11.0001 15.1575C11.1971 15.1575 11.3922 15.1187 11.5743 15.0433C11.7563 14.9679 11.9217 14.8574 12.0611 14.718L17.7171 9.06003Z" fill="black"/>
</svg>
