<svg width="19" height="19" viewBox="0 0 19 19" fill="none" xmlns="http://www.w3.org/2000/svg">
<path d="M2.9673 0.716273L9.30825 7.05722L15.6163 0.749128C15.7557 0.600818 15.9235 0.482175 16.1098 0.400314C16.2961 0.318453 16.4971 0.275059 16.7005 0.272736C17.1362 0.272736 17.5541 0.445809 17.8621 0.753881C18.1702 1.06195 18.3433 1.47979 18.3433 1.91547C18.3471 2.11687 18.3097 2.31693 18.2335 2.50337C18.1572 2.68981 18.0436 2.8587 17.8997 2.99967L11.5095 9.30776L17.8997 15.698C18.1705 15.9629 18.3293 16.3215 18.3433 16.7001C18.3433 17.1357 18.1702 17.5536 17.8621 17.8616C17.5541 18.1697 17.1362 18.3428 16.7005 18.3428C16.4912 18.3515 16.2823 18.3165 16.0872 18.2402C15.892 18.1638 15.7149 18.0477 15.5671 17.8992L9.30825 11.5583L2.98373 17.8828C2.84492 18.0262 2.6791 18.1406 2.49584 18.2196C2.31257 18.2985 2.11548 18.3404 1.91595 18.3428C1.48027 18.3428 1.06243 18.1697 0.754362 17.8616C0.44629 17.5536 0.273217 17.1357 0.273217 16.7001C0.269386 16.4987 0.306754 16.2986 0.383025 16.1122C0.459296 15.9257 0.572863 15.7568 0.716754 15.6159L7.10698 9.30776L0.716754 2.91753C0.446007 2.65266 0.287245 2.29397 0.273217 1.91547C0.273217 1.47979 0.44629 1.06195 0.754362 0.753881C1.06243 0.445809 1.48027 0.272736 1.91595 0.272736C2.31021 0.277664 2.68803 0.437009 2.9673 0.716273Z" fill="#42C1C7"/>
</svg>
