<svg width="24" height="24" viewBox="0 0 24 24" fill="none" xmlns="http://www.w3.org/2000/svg">
<path fill-rule="evenodd" clip-rule="evenodd" d="M2.05584 17.3688L2.04959 17.4042C1.92126 18.1313 1.81613 18.727 1.77538 19.2077C1.73371 19.6992 1.74813 20.1698 1.93463 20.6093C2.21312 21.2655 2.73553 21.7879 3.39171 22.0663C3.83114 22.2528 4.30174 22.2673 4.79325 22.2256C5.27397 22.1848 5.86964 22.0797 6.59676 21.9514L6.63219 21.9451L13.8425 20.6727L13.8718 20.6676C14.7871 20.506 15.5152 20.3775 16.1008 20.2282C16.7017 20.0749 17.2047 19.8876 17.6565 19.5827C18.3943 19.085 18.9774 18.39 19.3394 17.5769C19.5611 17.079 19.6581 16.5511 19.7046 15.9326C19.75 15.3301 19.75 14.5906 19.75 13.6613V13.6315V11.7681C20.5949 12.3673 21.7733 12.2884 22.5303 11.5313C23.3755 10.6861 23.3755 9.31584 22.5303 8.47066L16.0303 1.97066C15.1851 1.12549 13.8148 1.12549 12.9697 1.97066C12.3531 2.58722 12.1863 3.48325 12.4693 4.251H10.3695H10.3397C9.41034 4.25099 8.67091 4.25099 8.06833 4.29633C7.44992 4.34286 6.92201 4.43991 6.42409 4.66157C5.61102 5.02354 4.91599 5.60665 4.41824 6.34445C4.11341 6.79627 3.9261 7.29928 3.7728 7.9002C3.62343 8.48573 3.49493 9.21392 3.33342 10.1292L3.32826 10.1584L2.05584 17.3688ZM14.5303 4.47066L19.5303 9.47067L20.5303 10.4707C20.7897 10.7301 21.2103 10.7301 21.4697 10.4707C21.729 10.2113 21.729 9.79072 21.4697 9.53132L14.9697 3.03132C14.7103 2.77193 14.2897 2.77193 14.0303 3.03132C13.7709 3.29072 13.7709 3.71127 14.0303 3.97066L14.5303 4.47066ZM13.6893 5.751H10.3695C9.40368 5.751 8.72061 5.75149 8.18088 5.7921C7.65057 5.832 7.31287 5.90783 7.03414 6.03192C6.47782 6.27958 6.00228 6.67855 5.66171 7.18336C5.49107 7.43628 5.35771 7.75566 5.22625 8.27098C5.09246 8.79544 4.97327 9.46803 4.80543 10.4191L3.53302 17.6295C3.39691 18.4007 3.30436 18.9293 3.27002 19.3344C3.25803 19.4758 3.25453 19.5898 3.25697 19.6828L6.97011 15.9697C7.263 15.6768 7.73788 15.6768 8.03077 15.9697C8.32366 16.2626 8.32366 16.7374 8.03077 17.0303L4.31711 20.744C4.41032 20.7465 4.52464 20.743 4.66654 20.731C5.07163 20.6966 5.60026 20.6041 6.37151 20.468L13.5819 19.1955C14.5329 19.0277 15.2055 18.9085 15.73 18.7747C16.2453 18.6433 16.5647 18.5099 16.8176 18.3393C17.3224 17.9987 17.7214 17.5232 17.9691 16.9668C18.0931 16.6881 18.169 16.3504 18.2089 15.8201C18.2495 15.2804 18.25 14.5973 18.25 13.6315V10.3117L13.6893 5.751ZM9.74998 13C9.74998 13.6904 10.3096 14.25 11 14.25C11.6903 14.25 12.25 13.6904 12.25 13C12.25 12.3097 11.6903 11.75 11 11.75C10.3096 11.75 9.74998 12.3097 9.74998 13ZM11 15.75C9.4812 15.75 8.24998 14.5188 8.24998 13C8.24998 11.4812 9.4812 10.25 11 10.25C12.5188 10.25 13.75 11.4812 13.75 13C13.75 14.5188 12.5188 15.75 11 15.75Z" fill="#020304"/>
</svg>
