<svg width="24" height="24" viewBox="0 0 24 24" fill="none" xmlns="http://www.w3.org/2000/svg">
<path d="M5.827 5.82803C5.483 6.17703 5.257 6.66703 5.131 7.59803C5.002 8.56303 5.001 9.84103 5.001 11.68V12.32C5.001 14.156 5.002 15.433 5.131 16.397C5.256 17.329 5.483 17.822 5.828 18.174C6.178 18.517 6.668 18.744 7.598 18.869C8.563 18.998 9.841 19 11.68 19H12.32C14.156 19 15.433 18.998 16.398 18.869C17.329 18.744 17.822 18.517 18.174 18.172C18.517 17.823 18.744 17.333 18.869 16.402C18.999 15.437 19 14.159 19 12.32V11.68C19 9.84403 18.998 8.56703 18.87 7.60303C18.744 6.67103 18.517 6.17803 18.172 5.82603C17.823 5.48303 17.333 5.25603 16.402 5.13103C15.437 5.00203 14.159 5.00003 12.32 5.00003H11.68C9.844 5.00003 8.567 5.00203 7.603 5.13103C6.671 5.25603 6.179 5.48303 5.827 5.82803ZM11.68 3.00003H12.32C13.765 3.00003 15.232 2.95703 16.667 3.14903C17.823 3.30403 18.802 3.63503 19.584 4.40903L19.592 4.41803C20.365 5.20203 20.697 6.18103 20.852 7.33803C21.043 8.77103 21 10.237 21 11.68V12.32C21 13.764 21.044 15.231 20.851 16.667C20.697 17.823 20.365 18.802 19.591 19.584L19.582 19.592C18.799 20.365 17.82 20.696 16.662 20.852C15.229 21.043 13.763 21 12.32 21H11.68C10.236 21 8.769 21.043 7.334 20.851C6.177 20.696 5.198 20.365 4.417 19.591L4.408 19.582C3.636 18.798 3.304 17.819 3.149 16.662C2.957 15.23 3 13.764 3 12.32V11.68C3 10.236 2.957 8.76903 3.15 7.33303C3.304 6.17703 3.636 5.19803 4.41 4.41603L4.418 4.40803C5.202 3.63503 6.181 3.30403 7.338 3.14803C8.772 2.95803 10.238 3.00003 11.68 3.00003ZM6.036 8.47803C6.132 13.158 8.472 15.966 12.576 15.966H12.816V13.29C14.322 13.44 15.462 14.544 15.918 15.966H18.048C17.8296 15.1579 17.4424 14.4053 16.9118 13.7579C16.3813 13.1105 15.7194 12.5829 14.97 12.21C15.6414 11.801 16.2213 11.258 16.6735 10.6148C17.1256 9.97169 17.4404 9.24224 17.598 8.47203H15.666C15.246 9.96003 13.998 11.31 12.816 11.436V8.47803H10.878V13.662C9.678 13.362 8.166 11.91 8.1 8.47803H6.036Z" fill="white"/>
</svg>
